<svg xmlns="http://www.w3.org/2000/svg" viewBox="0 0 96 96" fill="none">
  <rect width="96" height="96" rx="28" fill="#050912"/>
  <circle cx="26" cy="30" r="8" fill="#B7D5FF"/>
  <circle cx="26" cy="30" r="18" fill="#69A5FF" fill-opacity=".2"/>
  <path d="M28 62.5c5.4 0 9.9-1.4 13.5-4.2 3.7-2.8 5.5-6.5 5.5-11.1 0-3.1-.9-5.7-2.6-7.9-1.8-2.2-4.2-3.8-7.3-4.9l9.7-15.4h17L53 37.7c4.4 1.3 7.8 3.6 10.3 7 2.5 3.4 3.8 7.4 3.8 11.9 0 8-3 14.3-8.9 18.8-5.9 4.5-13.6 6.7-23 6.7H28v-19.6Z" fill="url(#a)"/>
  <defs>
    <linearGradient id="a" x1="28" x2="67.1" y1="19" y2="82.1" gradientUnits="userSpaceOnUse">
      <stop stop-color="#FFFFFF"/>
      <stop offset=".54" stop-color="#B7D5FF"/>
      <stop offset="1" stop-color="#69A5FF"/>
    </linearGradient>
  </defs>
</svg>
